<mxfile host="app.diagrams.net" modified="2023-01-07T02:07:34.514Z" agent="5.0 (Macintosh; Intel Mac OS X 10_15_7) AppleWebKit/537.36 (KHTML, like Gecko) Chrome/108.0.0.0 Safari/537.36" etag="gemBqqo3fr6gSYX5xeks" version="20.4.2" type="github">
  <diagram id="A8OTivZ6IeQaZzXz_Mxk" name="整体架构">
    <mxGraphModel dx="843" dy="498" grid="1" gridSize="10" guides="1" tooltips="1" connect="1" arrows="1" fold="1" page="1" pageScale="1" pageWidth="827" pageHeight="1169" math="0" shadow="0">
      <root>
        <mxCell id="0" />
        <mxCell id="1" parent="0" />
        <mxCell id="U-PO8DidO0TADwdRXf4v-2" style="edgeStyle=orthogonalEdgeStyle;rounded=0;orthogonalLoop=1;jettySize=auto;html=1;entryX=0.25;entryY=0;entryDx=0;entryDy=0;exitX=0.25;exitY=1;exitDx=0;exitDy=0;" edge="1" parent="1" source="U-PO8DidO0TADwdRXf4v-5" target="U-PO8DidO0TADwdRXf4v-10">
          <mxGeometry relative="1" as="geometry" />
        </mxCell>
        <mxCell id="U-PO8DidO0TADwdRXf4v-3" value="RTMP over QUIC" style="edgeLabel;html=1;align=center;verticalAlign=middle;resizable=0;points=[];" vertex="1" connectable="0" parent="U-PO8DidO0TADwdRXf4v-2">
          <mxGeometry x="0.0842" y="-1" relative="1" as="geometry">
            <mxPoint y="-6" as="offset" />
          </mxGeometry>
        </mxCell>
        <mxCell id="U-PO8DidO0TADwdRXf4v-4" style="edgeStyle=orthogonalEdgeStyle;rounded=0;orthogonalLoop=1;jettySize=auto;html=1;entryX=0.25;entryY=0;entryDx=0;entryDy=0;startArrow=classic;startFill=1;dashed=1;" edge="1" parent="1" source="U-PO8DidO0TADwdRXf4v-5" target="U-PO8DidO0TADwdRXf4v-25">
          <mxGeometry relative="1" as="geometry" />
        </mxCell>
        <mxCell id="U-PO8DidO0TADwdRXf4v-5" value="微信小程序" style="rounded=0;whiteSpace=wrap;html=1;" vertex="1" parent="1">
          <mxGeometry x="80" y="80" width="120" height="60" as="geometry" />
        </mxCell>
        <mxCell id="U-PO8DidO0TADwdRXf4v-6" style="edgeStyle=orthogonalEdgeStyle;rounded=0;orthogonalLoop=1;jettySize=auto;html=1;exitX=0.75;exitY=0;exitDx=0;exitDy=0;entryX=0.75;entryY=1;entryDx=0;entryDy=0;" edge="1" parent="1" source="U-PO8DidO0TADwdRXf4v-10" target="U-PO8DidO0TADwdRXf4v-5">
          <mxGeometry relative="1" as="geometry">
            <Array as="points" />
          </mxGeometry>
        </mxCell>
        <mxCell id="U-PO8DidO0TADwdRXf4v-7" value="RTMP over QUIC" style="edgeLabel;html=1;align=center;verticalAlign=middle;resizable=0;points=[];" vertex="1" connectable="0" parent="U-PO8DidO0TADwdRXf4v-6">
          <mxGeometry x="0.3358" y="-1" relative="1" as="geometry">
            <mxPoint as="offset" />
          </mxGeometry>
        </mxCell>
        <mxCell id="U-PO8DidO0TADwdRXf4v-8" style="edgeStyle=orthogonalEdgeStyle;rounded=0;orthogonalLoop=1;jettySize=auto;html=1;entryX=0;entryY=0.25;entryDx=0;entryDy=0;exitX=1;exitY=0.25;exitDx=0;exitDy=0;" edge="1" parent="1" source="U-PO8DidO0TADwdRXf4v-10" target="U-PO8DidO0TADwdRXf4v-16">
          <mxGeometry relative="1" as="geometry" />
        </mxCell>
        <mxCell id="U-PO8DidO0TADwdRXf4v-9" value="RTMP over QUIC" style="edgeLabel;html=1;align=center;verticalAlign=middle;resizable=0;points=[];" vertex="1" connectable="0" parent="U-PO8DidO0TADwdRXf4v-8">
          <mxGeometry x="-0.0204" relative="1" as="geometry">
            <mxPoint as="offset" />
          </mxGeometry>
        </mxCell>
        <mxCell id="U-PO8DidO0TADwdRXf4v-10" value="腾讯云" style="rounded=0;whiteSpace=wrap;html=1;" vertex="1" parent="1">
          <mxGeometry x="80" y="360" width="120" height="60" as="geometry" />
        </mxCell>
        <mxCell id="U-PO8DidO0TADwdRXf4v-11" style="edgeStyle=orthogonalEdgeStyle;rounded=0;orthogonalLoop=1;jettySize=auto;html=1;exitX=0;exitY=0.75;exitDx=0;exitDy=0;entryX=1;entryY=0.75;entryDx=0;entryDy=0;" edge="1" parent="1" source="U-PO8DidO0TADwdRXf4v-16" target="U-PO8DidO0TADwdRXf4v-10">
          <mxGeometry relative="1" as="geometry" />
        </mxCell>
        <mxCell id="U-PO8DidO0TADwdRXf4v-12" value="RTMP over QUIC" style="edgeLabel;html=1;align=center;verticalAlign=middle;resizable=0;points=[];" vertex="1" connectable="0" parent="U-PO8DidO0TADwdRXf4v-11">
          <mxGeometry x="0.037" y="1" relative="1" as="geometry">
            <mxPoint as="offset" />
          </mxGeometry>
        </mxCell>
        <mxCell id="U-PO8DidO0TADwdRXf4v-13" style="edgeStyle=orthogonalEdgeStyle;rounded=0;orthogonalLoop=1;jettySize=auto;html=1;entryX=0;entryY=0.25;entryDx=0;entryDy=0;exitX=1;exitY=0.25;exitDx=0;exitDy=0;" edge="1" parent="1" source="U-PO8DidO0TADwdRXf4v-16" target="U-PO8DidO0TADwdRXf4v-19">
          <mxGeometry relative="1" as="geometry" />
        </mxCell>
        <mxCell id="U-PO8DidO0TADwdRXf4v-14" value="RTP" style="edgeLabel;html=1;align=center;verticalAlign=middle;resizable=0;points=[];" vertex="1" connectable="0" parent="U-PO8DidO0TADwdRXf4v-13">
          <mxGeometry x="-0.1292" relative="1" as="geometry">
            <mxPoint as="offset" />
          </mxGeometry>
        </mxCell>
        <mxCell id="U-PO8DidO0TADwdRXf4v-15" style="edgeStyle=orthogonalEdgeStyle;rounded=0;orthogonalLoop=1;jettySize=auto;html=1;exitX=0.5;exitY=0;exitDx=0;exitDy=0;entryX=0;entryY=0.5;entryDx=0;entryDy=0;startArrow=classic;startFill=1;dashed=1;" edge="1" parent="1" source="U-PO8DidO0TADwdRXf4v-16" target="U-PO8DidO0TADwdRXf4v-25">
          <mxGeometry relative="1" as="geometry" />
        </mxCell>
        <mxCell id="U-PO8DidO0TADwdRXf4v-16" value="RTMP网关" style="rounded=0;whiteSpace=wrap;html=1;" vertex="1" parent="1">
          <mxGeometry x="360" y="360" width="120" height="60" as="geometry" />
        </mxCell>
        <mxCell id="U-PO8DidO0TADwdRXf4v-17" style="edgeStyle=orthogonalEdgeStyle;rounded=0;orthogonalLoop=1;jettySize=auto;html=1;exitX=0;exitY=0.75;exitDx=0;exitDy=0;entryX=1;entryY=0.75;entryDx=0;entryDy=0;" edge="1" parent="1" source="U-PO8DidO0TADwdRXf4v-19" target="U-PO8DidO0TADwdRXf4v-16">
          <mxGeometry relative="1" as="geometry" />
        </mxCell>
        <mxCell id="U-PO8DidO0TADwdRXf4v-18" value="RTP" style="edgeLabel;html=1;align=center;verticalAlign=middle;resizable=0;points=[];" vertex="1" connectable="0" parent="U-PO8DidO0TADwdRXf4v-17">
          <mxGeometry x="0.1667" y="1" relative="1" as="geometry">
            <mxPoint x="3" as="offset" />
          </mxGeometry>
        </mxCell>
        <mxCell id="U-PO8DidO0TADwdRXf4v-19" value="SFU" style="rounded=0;whiteSpace=wrap;html=1;" vertex="1" parent="1">
          <mxGeometry x="640" y="360" width="120" height="60" as="geometry" />
        </mxCell>
        <mxCell id="U-PO8DidO0TADwdRXf4v-20" style="edgeStyle=orthogonalEdgeStyle;rounded=0;orthogonalLoop=1;jettySize=auto;html=1;entryX=0.5;entryY=0;entryDx=0;entryDy=0;startArrow=classic;startFill=1;" edge="1" parent="1" source="U-PO8DidO0TADwdRXf4v-23" target="U-PO8DidO0TADwdRXf4v-19">
          <mxGeometry relative="1" as="geometry">
            <Array as="points">
              <mxPoint x="700" y="200" />
              <mxPoint x="700" y="200" />
            </Array>
          </mxGeometry>
        </mxCell>
        <mxCell id="U-PO8DidO0TADwdRXf4v-21" value="WebRTC" style="edgeLabel;html=1;align=center;verticalAlign=middle;resizable=0;points=[];" vertex="1" connectable="0" parent="U-PO8DidO0TADwdRXf4v-20">
          <mxGeometry x="0.0331" y="-1" relative="1" as="geometry">
            <mxPoint as="offset" />
          </mxGeometry>
        </mxCell>
        <mxCell id="U-PO8DidO0TADwdRXf4v-22" style="edgeStyle=orthogonalEdgeStyle;rounded=0;orthogonalLoop=1;jettySize=auto;html=1;exitX=0;exitY=0.5;exitDx=0;exitDy=0;entryX=0.75;entryY=0;entryDx=0;entryDy=0;startArrow=classic;startFill=1;dashed=1;" edge="1" parent="1" source="U-PO8DidO0TADwdRXf4v-23" target="U-PO8DidO0TADwdRXf4v-25">
          <mxGeometry relative="1" as="geometry" />
        </mxCell>
        <mxCell id="U-PO8DidO0TADwdRXf4v-23" value="Web" style="rounded=0;whiteSpace=wrap;html=1;" vertex="1" parent="1">
          <mxGeometry x="640" y="80" width="120" height="60" as="geometry" />
        </mxCell>
        <mxCell id="U-PO8DidO0TADwdRXf4v-24" style="edgeStyle=orthogonalEdgeStyle;rounded=0;orthogonalLoop=1;jettySize=auto;html=1;entryX=0.25;entryY=0;entryDx=0;entryDy=0;startArrow=classic;startFill=1;dashed=1;" edge="1" parent="1" source="U-PO8DidO0TADwdRXf4v-25" target="U-PO8DidO0TADwdRXf4v-19">
          <mxGeometry relative="1" as="geometry" />
        </mxCell>
        <mxCell id="U-PO8DidO0TADwdRXf4v-25" value="Signal" style="rounded=1;whiteSpace=wrap;html=1;" vertex="1" parent="1">
          <mxGeometry x="520" y="200" width="120" height="60" as="geometry" />
        </mxCell>
      </root>
    </mxGraphModel>
  </diagram>
</mxfile>
